{"title":"Tommy &quot;The Who&quot; 1975 DVD9rip English Klam","uid":9246669,"size":1369172816,"categoryP":"video","categoryS":"movies","magnet":"?xt=urn:btih:1f5ccb6a58f3bf2ac392e158f1a011c853ed3816&amp;dn=Tommy+%26quot%3BThe+Who%26quot%3B+1975+DVD9rip+English+Klam&amp;tr=udp%3A%2F%2Ftracker.openbittorrent.com%3A80&amp;tr=udp%3A%2F%2Fopen.demonii.com%3A1337&amp;tr=udp%3A%2F%2Ftracker.coppersurfer.tk%3A6969&amp;tr=udp%3A%2F%2Fexodus.desync.com%3A6969","seeders":1,"leechers":0,"uploader":"Klambake","files":-1,"time":1385386205,"description":"With: Roger Daltrey, Ann-Margret and Oliver Reed\n\nCaptain Walker is vermist geraakt in de Tweede Wereldoorlog. Kort hierna baart zijn vrouw, Nora, zijn zoon Tommy. Wanneer Tommy een jaar of tien is hertrouwt zijn moeder met Frank Hobbs. Als Nora en Frank op het punt staan hun liefde te consumeren stopt Walker hen, waarna hij vermoord wordt door Frank. Dit alles wordt gadegeslagen door Tommy, waarna hij blind, doof en stom is. Terwijl Nora en Frank op zoek gaan naar een manier om Tommy zijn zintuigen terug te geven, zoekt hij zelf naar dromen over zijn verloren vader. Rockopera van The Who.\n\nA psychosomatically deaf, dumb and blind boy becomes a master pinball player and the object of a religious cult because of that.\n &lt;a href=&quot;\nhttp://www.imdb.com/title/tt0073812&quot; rel=&quot;nofollow&quot; target=&quot;_NEW&quot;&gt;\nhttp://www.imdb.com/title/tt0073812&lt;/a&gt;\n\n--------------------- Dutch Friends 4ever ---------------------\n---------------------------------------------------------------\n- Bezoek ook eens mijn vrienden op: &lt;a href=&quot; http://www.Film-Test.nl&quot; rel=&quot;nofollow&quot; target=&quot;_NEW&quot;&gt; http://www.Film-Test.nl&lt;/a&gt; --\n----- voor mijn Nederlandse Sync. ondertitels ---- en meer ----\n------- http://www.Film-Test.nl ---- Over Films en meer -------\n---------------------------------------------------------------\n\nGeneral:\n\nComplete name                    : The WhoTommy.avi\nFormat                           : AVI\nFormat/Info                      : Audio Video Interleave\nFile size                        : 1.27 GiB\nDuration                         : 1h 46mn\nOverall bit rate                 : 1 707 Kbps\n\nVideo:\n\nFormat                           : MPEG-4 Visual\nFormat profile                   : Simple@L3\nFormat settings, BVOP            : No\nFormat settings, QPel            : No\nFormat settings, GMC             : No warppoints\nFormat settings, Matrix          : Default (H.263)\nCodec ID                         : XVID\nCodec ID/Hint                    : XviD\nDuration                         : 1h 46mn\nBit rate                         : 1 505 Kbps\nWidth                            : 640 pixels\nHeight                           : 480 pixels\nDisplay aspect ratio             : 4:3\nFrame rate                       : 25.000 fps\nColor space                      : YUV\nChroma subsampling               : 4:2:0\nBit depth                        : 8 bits\nScan type                        : Progressive\nCompression mode                 : Lossy\nBits/(Pixel*Frame)               : 0.196\nStream size                      : 1.12 GiB (88%)\nWriting library                  : XviD 1.1.2 (UTC 2006-11-01)\n\nAudio:\n\nFormat                           : AC-3\nFormat/Info                      : Audio Coding 3\nMode extension                   : CM (complete main)\nCodec ID                         : 2000\nDuration                         : 1h 46mn\nBit rate mode                    : Constant\nBit rate                         : 192 Kbps\nChannel(s)                       : 2 channels\nChannel positions                : Front: L R\nSampling rate                    : 48.0 KHz\nBit depth                        : 16 bits\nCompression mode                 : Lossy\nStream size                      : 147 MiB (11%)\nAlignment                        : Aligned on interleaves\nInterleave, duration             : 32 ms (0.80 video frame)","torrent":{"xt":"urn:btih:1f5ccb6a58f3bf2ac392e158f1a011c853ed3816","amp;dn":"Tommy+%26quot%3BThe+Who%26quot%3B+1975+DVD9rip+English+Klam","amp;tr":["udp%3A%2F%2Ftracker.openbittorrent.com%3A80","udp%3A%2F%2Fopen.demonii.com%3A1337","udp%3A%2F%2Ftracker.coppersurfer.tk%3A6969","udp%3A%2F%2Fexodus.desync.com%3A6969"],"infoHash":"1f5ccb6a58f3bf2ac392e158f1a011c853ed3816","infoHashBuffer":{"type":"Buffer","data":[31,92,203,106,88,243,191,42,195,146,225,88,241,160,17,200,83,237,56,22]},"announce":[],"urlList":[]}}